<svg xmlns="http://www.w3.org/2000/svg" width="1475" height="466" viewBox="0 0 1475 466">
  <defs>
    <style>
      .cls-1 {
        fill: #b2b2b2;
        fill-rule: evenodd;
      }
    </style>
  </defs>
  <path id="Color_Fill_1" data-name="Color Fill 1" class="cls-1" d="M205,0c74.424,0.06,79.315,51.374,107,97,24.74,40.771,45.2,87.023,65,132,14.935,33.92,36.662,67,48,104,4.871,15.9,1.272,38.5-3,51-14.013,40.988-32,54.028-73,68v1h1c0.86,0.649,3.144,1.338,4,2-9.041.136-40.642,2.407-46-1l6-1v-1c-28.971-5.479-48.233-17.575-68-32-8.993-6.563-19.79-25.52-31-28-25.642,26.842-52.462,50.877-96,60v1h1c1.008,0.693,4,1.287,5,2-9.194.136-41.552,2.462-47-1l6-1v-1c-40.048-7.277-59.248-31-73-65-4.374-10.812-7.937-32.337-4-48a214.376,214.376,0,0,1,11-32c11.817-27.4,28.244-54.8,40-82,13.126-30.369,26.439-60.544,43-88,4.041-6.7,4.966-14.092,9-21,15.994-27.389,28.178-59.031,46-85,6.219-9.062,19.508-19.5,30-24C192.389,4.258,201.106,5.177,205,0Zm7,29c-4.254,2.823-9.889,2.027-15,4-5.626,2.171-15.549,10.285-19,15-9.984,13.642-16.839,29.868-24,46-3.816,8.6-10.214,18.13-15,26-2.646,4.351-2.411,9.339-5,14-5.369,9.668-12.36,21.36-18,31-5.139,8.784-6.268,17.919-11,27-17.564,33.7-33.661,68.064-50,104-7.758,17.063-16.958,33.064-22,54-3.2,13.276,2.194,28.671,6,36,11.256,21.676,34.838,49.819,72,41l13-1c31.459-10.768,50.5-32.459,72-53v-5c-4.26-4.484-6.431-9.691-10-15-5.562-8.274-13.529-16.554-19-25-13.328-20.577-20.49-45.939-27-73-2-8.328.481-20.288,2-26,7.832-29.459,18.8-43.05,45-54,8.649-3.614,23.99-10.811,39-7,25.277,6.417,44.955,16.531,57,36,19.753,31.93,5.183,87.321-11,113-6.16,9.775-12.156,20.444-19,30-5.616,7.841-15.465,13.359-16,26l14,15c13.243,10.02,25.946,23.2,41,31,4.8,2.484,9.744,1.866,15,4,39.348,15.975,68.928-7.2,84-32,5.412-8.906,13.331-26.312,9-44-8.487-34.66-26.418-62.35-40-92-17.643-38.514-35.826-74.448-53-113-5.9-13.255-16.077-26.749-22-40C270.7,70,258.7,28.668,212,29ZM739,86c16.521-.509,27.378,5.849,32,17,7,16.9-3.713,36.728-19,38-5.044,3.618-13.394,1.158-18-1-17.714-8.3-19.639-20.221-14-42,3.709-2.393,6.389-6.674,10-9Zm180,0c12.292-.107,27.378-1.088,38,1v2c2.956,4.734,1,18.2,1,25v63a15.7,15.7,0,0,0,5,1c12.432-13.013,43.3-18.379,67-11,21.03,6.548,39.68,23.5,50,41,2.62,4.447,2.04,8.709,4,14,3.03,8.19,9.84,24.526,7,37-9.07,39.907-23.61,65.006-58,79-24.27,9.877-58.9,2.607-72-11-1.754.631-.971,0.193-2,1-1.89,2.255-2.311,8.695-5,10H925c-2.413,1.481-4.36.355-8,0v-2c-2.29-3.692-1-13.481-1-19V149c0-19.828-2.467-44.006,1-62C918.754,86.369,917.971,86.807,919,86Zm374,0h37c3.16,6.161,2,18.731,2,28v63a15.662,15.662,0,0,0,5,1c12.57-12.464,44.04-19.186,68-11,32.01,10.934,70.33,55,58,106-8.15,33.693-30.18,56.549-63,66-7.71,2.219-22.82,5.643-34,3-6.61-1.561-15.71-3.488-21-7-4.36-2.9-4.73-6.191-12-7-4.88,14.057-16.19,10.568-34,10-2.06,1.161-4.18.254-8,0-1.97-5.983-1-16.348-1-24V88A10.913,10.913,0,0,0,1293,86ZM694,338c-12.6.108-28.076,1.146-39-1-0.867-4.668-1.371-8.465-7-9-12.372,12.922-44.232,18.84-68,11-29.883-9.857-46.318-31.371-56-62-2.509-7.936-6.8-22.587-4-35,8.219-36.479,22.895-57.459,54-71,9.27-4.035,27.219-10.715,43-7,6.174,1.454,14.96,2.9,20,6s7.172,7.162,15,8c5.293-15.051,21.875-10.535,41-10q0.5,1.5,1,3c3.5,5.628,1,35.772,1,45C695,255.819,698.478,300.019,694,338ZM871,164l23,1c4.09,7.849,2.121,25.716,2,37h-1v1c-13.728.62-34.263-2.614-46,5-4.606,2.988-8.083,8.224-12,12V337c-8.255,4.3-27.245,2.121-39,2-1.021-.8-0.274-0.355-2-1-3.98-12.09-1-38.294-1-53V169h2c4.435-2.884,31.559-1.136,37,0,1.575,4.023,2.031,8.932,7,10,4.432-5.542,13.845-10.421,21-13C864.866,164.967,868.746,165.486,871,164Zm317,0c38.72-.321,63.48,12.889,74,40,4.75,12.241,3,30.166,3,46v88h-2c-4.53,2.941-33.37,1.17-39,0V238c-1.53-2.655,0-7.171-1-11-1.8-6.887-6.49-17.707-13-20-13.51-12.831-52.43.124-57,12-3.82,6.2-1,24.436-1,33,0,26.62,3.56,61.673-1,86h-5c-2.59,1.476-30.88.267-35,0v-2c-3.44-5.527-1-34.934-1-44V211c0-13.578-1.31-30.115,1-42,8.52-2.864,23.62-1.082,34-1,3.14,3.46,4.09,5.844,6,11,1.75-.631.97-0.193,2-1,7.35-1.9,12.14-8.419,19-11C1176.92,165.148,1183.92,166.718,1188,164Zm-463,4h39c5.452,10.672,2,35.5,2,50V336c-2.281,1.225-2.251,1.638-6,2-1.851,1.066-31.892.6-35,0-4.093-12.3-1-33.605-1-48V207C724,195.136,721.71,177.93,725,168ZM212,195c-4.18,2.473-11.379,1.079-16,3-13.444,5.589-23.271,18.7-28,33-3.1,9.37-.029,22.279,2,29q0.5,5,1,10a219.61,219.61,0,0,0,28,54c5.087,7.257,8.948,20.052,19,22,5.743-8.8,14.394-17.037,20-26,12.057-19.279,21.317-40.594,28-65,2.023-7.387-.4-19.387-2-24C255.874,207.532,243.666,194.822,212,195Zm398,8c-2.189,1.289-5.729.087-9,1-5.341,1.49-12.6,4.008-17,7-15.761,10.714-27.243,36.587-17,61,3.03,7.221,4.325,13.72,10,18,16.894,12.741,43.335,18.846,64,5,4.172-2.8,8.188-3.8,10-9,2.925-3.79,2-12.336,2-19,0-15.915,1.02-35.192-2-48C638.444,210.854,631.537,203.586,610,203Zm381,0c-4.512,2.762-11.328,1.472-16,4-6.961,3.767-11.714,10.458-17,16v60c7.107,21.277,46.57,23.844,67,13,19.2-10.191,29.93-41.833,18-68C1035.4,211.326,1016.2,202.588,991,203Zm373,0c-4.24,2.642-10.44,1.655-15,4-6.55,3.369-12.05,9.833-17,15v62c6.97,20.765,50.34,23.195,69,11,23.52-15.376,27.8-51.649,10-76C1402.38,207.205,1384.88,202.661,1364,203Z"/>
</svg>
