<svg xmlns="http://www.w3.org/2000/svg" width="512" height="512" viewBox="0 0 512 512">
  <defs>
    <style>
      .cls-1 {
        fill: #fff;
        fill-rule: evenodd;
      }
    </style>
  </defs>
  <path id="Color_Fill_1" data-name="Color Fill 1" class="cls-1" d="M481,270v85c0,18.767.657,34.506-7,45-9.31,12.759-27.576,12-50,12H321v70c5.74-.161,17.2-1.488,21,1,5.075,1.585,5.793,4.8,9,8,0.147,3.872.537,9.715-1,12-1.585,5.075-4.8,5.793-8,9H91c-37.549,0-77.173,6.862-89-20-5.292-12.021-2-54.552-2-72V250c0-35-1.957-66.6,31-68-0.224-33.319-6.8-99.31,12-113,16.438-11.968,57.633-7,85-7H341c-0.284-23.776-1.5-45.189,12-55,17.567-12.769,76.8-7,107-7,17.436,0,30.309-.074,40,7,15.944,11.638,12,43.582,12,71V202C512,237.649,513.888,267.737,481,270ZM371,180H482V72c0-10.784,3.157-33.16-2-40V31c-23.768-2.894-52.509-1-78-1-8.654,0-23.752-1.975-29,2h-1c-1.863,16.447-1,36.917-1,55v93ZM61,182H164c22.507,0,40.673-.812,50,12,7.648,10.506,7,26.224,7,45v83H451V270c-28.624.2-81.422,5.1-98-7-13.327-9.725-12-29.639-12-53V92H84c-7.111,0-16.865-1.1-21,2H62C58.93,121.06,60.989,153.206,61,182Zm310,28c-0.221,8.249-1.8,23.144,2,28v1c23.768,2.894,52.509,1,78,1,8.654,0,23.752,1.975,29-2h1c0.91-7.976,1.01-18.536,1-28H371ZM30,422H191V270c0-11.941,2.876-49.511-2-56v-1c-36.027-4.292-78.147-1-116-1-10.977,0-34.014-3.265-41,2H31c-2.553,22.551-1,49.755-1,74V422Zm191-70v30H388c12.6,0,54.212,3.1,61-2h1c0.91-7.976,1.01-18.536,1-28H221Zm0,60v70h70V412H221ZM30,452c-0.221,8.249-1.8,23.144,2,28v1c17.408,1.972,38.946,1,58,1H191V452H30Z"/>
</svg>
