<svg xmlns="http://www.w3.org/2000/svg" width="512" height="512" viewBox="0 0 512 512">
  <defs>
    <style>
      .cls-1 {
        fill: #fff;
        fill-rule: evenodd;
      }
    </style>
  </defs>
  <path id="Color_Fill_1" data-name="Color Fill 1" class="cls-1" d="M390,431c0.137,17.418-3.805,29.2-14,36-9.682,6.454-28.125,5-44,5H144c-30.9,0-55.2.779-62-23l-1-26V133c0-10.811-1.36-23.788,2-32,5.832-14.252,18.464-20.115,39-20-0.136-17.386,3.708-29.3,14-36,9.974-6.5,28.778-5,45-5H368c30.961,0,55.188-.825,62,23q0.5,13,1,26V379c0,10.809,1.362,23.79-2,32C423.188,425.2,410.489,431.115,390,431ZM144,81H310c25.145,0,55.8-3.109,70,8,15.7,12.283,10,56.771,10,84V409a53.787,53.787,0,0,0,16-2c7.223-15.574,3-70.852,3-94V148c0-26.265,3.626-60.31-2-83-14.624-6.8-52.413-3-73-3H211c-20.562,0-46.8-2.275-64,2C144.741,68.744,143.916,73.07,144,81Zm-34,22c-2.2,2.088-3.689,1.716-5,5-3.477,4.085-2,15.715-2,23V362c0,26.855-3.787,61.744,2,85,14.624,6.8,52.413,3,73,3H301c20.562,0,46.8,2.275,64-2,7.223-15.574,3-70.852,3-94V189c0-26.265,3.626-60.31-2-83-15.289-7.071-55.572-3-77-3H110Zm40,40H264c19.668,0,44.655-2.058,61,2,4.986,9.792,3.466,12.363-3,19H190c-12.561,0-39.412,3.626-45-4C138.97,152.756,146.146,146.526,150,143Zm1,61H260c20.668,0,44-1.177,63,1,1.556,2.389,2.923,2.924,4,6,11.276,18.161-25.312,15-38,15H200c-17.074,0-36.564.939-52-1-1.556-2.389-2.923-2.924-4-6C138.871,211.569,147.637,206.649,151,204Zm-2,62H281c12.561,0,39.412-3.626,45,4,1.909,2.376,2.056,5.487,2,10-1.563,1.626-2.178,3.572-4,5-5.783,4.372-34.54,2-45,2H194c-15.8,0-35.363,1.172-48-2-1.83-3.832-2.95-5.794-3-12C145.089,270.857,147.01,268.182,149,266Zm2,61H260c20.668,0,44-1.177,63,1,1.556,2.389,2.923,2.924,4,6,11.16,17.942-25.34,15-38,15H198c-16.808,0-37.34,1.212-51-2C139.816,336.411,142.778,333.647,151,327Zm-2,62H264c19.215,0,42.6-2.324,60,1,3.865,5.775,4.086,9.373,2,17-11.761,5.487-35.378,3-52,3H192c-15.213,0-33.915,1.016-46-2C141.716,399.6,143.361,394.8,149,389Z"/>
</svg>
