<svg xmlns="http://www.w3.org/2000/svg" width="2875" height="1311" viewBox="0 0 2875 1311">
  <defs>
    <style>
      .cls-1 {
        fill: #b2b2b2;
        fill-rule: evenodd;
      }
    </style>
  </defs>
  <path id="Color_Fill_1" data-name="Color Fill 1" class="cls-1" d="M2741,279a24.165,24.165,0,0,1,11,2,15.649,15.649,0,0,1,1,5c-33.25,20.587-73.38,34.454-111,51-64.81,28.5-130.41,56.185-196,85-211.44,92.888-424.71,182.749-637,276-235.2,103.316-472.58,202.744-709,306-150.425,65.7-298.693,134.5-460,188-35.281,11.7-72.752,16.78-111,26q-11.5,1.005-23,2c-40.321,8.79-112.658,4-148-6-98.053-27.74-176.852-76.13-214-165-6.278-15.02-9.779-33.02-14-51q-0.5-10.5-1-21c-1.722-8.346-3.212-26.116-1-36,3.679-16.44,1.857-33.955,6-50,7.761-30.055,12.785-60.708,24-88,11.245-27.364,23.559-55.037,35-81,6.22-14.116,11.135-28.055,19-41,19.431-31.981,36.122-65.515,56-97,25-39.6,53.37-77.273,80-115,16.432-23.28,33.234-45.165,50-68,8.663-11.8,20.255-22.305,29-34,7.953-10.635,22.754-33.076,33-40v2c-7.287,8.462-10.318,22.282-15,33-11.252,25.756-20.515,51.983-30,81-7.7,23.546-11.916,50.5-18,77q-0.5,9.5-1,19c-6.507,30.417-1.477,73.146,6,98,4.746,15.777,6.947,29.071,13,43,30.017,69.078,85.652,106.627,161,131,29.949,9.688,94.818,19.907,135,11l25-2c71.818-17.485,141.071-32.99,209-55,35.594-11.533,72.39-17.8,107-29,15.4-4.984,29.68-6.006,45-11,51.28-16.72,106.71-27.38,158-44,23.88-7.738,47.11-10.22,71-18,81.4-26.514,168.54-42.631,250-69,32.01-10.363,65-15.954,96-26,8.1-2.624,14.85-2.346,23-5,30.99-10.092,64.01-15.581,96-26,26.05-8.486,53.97-13.188,81-22,86.37-28.159,178.61-45.033,265-73,36.03-11.665,71.99-16.271,108-28,105.5-34.362,218.41-54.8,324-89,40.51-13.12,82.43-20.211,122-33,12.58-4.067,25.32-6.234,37-10C2732.51,280.547,2737.55,281.382,2741,279Z"/>
</svg>
