<svg xmlns="http://www.w3.org/2000/svg" width="512" height="512" viewBox="0 0 512 512">
  <defs>
    <style>
      .cls-1 {
        fill: #fff;
        fill-rule: evenodd;
      }
    </style>
  </defs>
  <path id="Color_Fill_1" data-name="Color Fill 1" class="cls-1" d="M74,16H189c19.668,0,44.655-2.057,61,2,8.071,12.42,6,23.041,6,43V447c0,14.34.788,31.741-2,43-2.526,1.653-5.039,5.038-8,6H117c-15.506,0-34.637,1.091-47-2-8.071-12.42-6-23.041-6-43V65c0-14.34-.788-31.741,2-43A50.668,50.668,0,0,0,74,16Zm281,0c51.759-.449,78.8,19.777,91,58,5,15.677,2,40.963,2,60V390c-3.074,9.374-18.134,26.2-24,35-15.97,23.967-29.579,51.4-50,71-6.165-.027-12.293.471-16-2-3.856-2.57-5.381-8.064-8-12q-12.828-19.281-26-39-12.822-19.283-26-39c-2.794-4.2-8.372-8.981-10-14V176c0-33.271-5.266-86.636,5-111a84.867,84.867,0,0,1,44-44ZM96,48V464H224V400c-23.46.158-54.032,3.016-74-2a50.613,50.613,0,0,0-6-8,53.787,53.787,0,0,1,2-16c15.566-10.19,52.908-6.134,78-6V336c-13.979.153-31.108,0.773-42-2a50.613,50.613,0,0,0-6-8,53.787,53.787,0,0,1,2-16c12.471-8.217,25.751-6.167,46-6V272c-23.46.158-54.032,3.016-74-2a50.613,50.613,0,0,0-6-8,53.787,53.787,0,0,1,2-16c15.566-10.19,52.908-6.134,78-6V208c-13.979.153-31.108,0.773-42-2a50.613,50.613,0,0,0-6-8,53.787,53.787,0,0,1,2-16c12.471-8.217,25.751-6.167,46-6V144c-23.46.158-54.032,3.016-74-2a50.613,50.613,0,0,0-6-8,53.787,53.787,0,0,1,2-16c15.566-10.19,52.908-6.134,78-6V48H96ZM321,96h94C415.888,34.057,320.124,34.086,321,96Zm-1,32V368h32V128H320Zm64,0V368h32V128H384ZM335,400l32,49c1.754-.631.971-0.193,2-1,5.536-5.545,8.562-13.329,13-20,6.111-9.187,13.825-17.87,19-28H335Z"/>
</svg>
